<svg xmlns="http://www.w3.org/2000/svg" width="48" height="48" viewBox="0 0 48 48">
  <defs><clipPath id="au"><circle cx="24" cy="22" r="18"/></clipPath></defs>
  <g clip-path="url(#au)">
    <rect x="6" y="4" width="36" height="36" fill="#012169"/>
    <rect x="6" y="11.5" width="18" height="3" fill="#FFFFFF"/>
    <rect x="13.5" y="4" width="3" height="18" fill="#FFFFFF"/>
    <rect x="6" y="12" width="18" height="2" fill="#C8102E"/>
    <rect x="14" y="4" width="2" height="18" fill="#C8102E"/>
    <g fill="#FFFFFF">
      <circle cx="15" cy="30" r="2.4"/>
      <circle cx="32" cy="12" r="1.3"/>
      <circle cx="36" cy="19" r="1.3"/>
      <circle cx="30.5" cy="22" r="1.3"/>
      <circle cx="34" cy="28" r="1.3"/>
      <circle cx="33" cy="20.5" r="0.9"/>
    </g>
  </g>
  <circle cx="24" cy="22" r="18" fill="none" stroke="#FFFFFF" stroke-width="1.5"/>
  <circle cx="38" cy="37.5" r="9.5" fill="#0A1F5C" stroke="#FFFFFF" stroke-width="1"/>
  <g fill="#FFFFFF">
    <path d="M38 32 L43 35 L33 35 Z"/>
    <rect x="34" y="35.6" width="1.3" height="4"/>
    <rect x="37.35" y="35.6" width="1.3" height="4"/>
    <rect x="40.7" y="35.6" width="1.3" height="4"/>
    <rect x="33" y="40" width="10" height="1.4"/>
  </g>
</svg>
