<svg xmlns="http://www.w3.org/2000/svg" width="48" height="48" viewBox="0 0 48 48">
  <defs><clipPath id="uk"><circle cx="24" cy="22" r="18"/></clipPath></defs>
  <g clip-path="url(#uk)">
    <rect x="6" y="4" width="36" height="36" fill="#012169"/>
    <g stroke="#FFFFFF" stroke-width="6"><path d="M6 4 L42 40"/><path d="M42 4 L6 40"/></g>
    <g stroke="#C8102E" stroke-width="3"><path d="M6 4 L42 40"/><path d="M42 4 L6 40"/></g>
    <rect x="20.5" y="4" width="7" height="36" fill="#FFFFFF"/>
    <rect x="6" y="18.5" width="36" height="7" fill="#FFFFFF"/>
    <rect x="22" y="4" width="4" height="36" fill="#C8102E"/>
    <rect x="6" y="20" width="36" height="4" fill="#C8102E"/>
  </g>
  <circle cx="24" cy="22" r="18" fill="none" stroke="#FFFFFF" stroke-width="1.5"/>
  <circle cx="38" cy="37.5" r="9.5" fill="#0A1F5C" stroke="#FFFFFF" stroke-width="1"/>
  <g fill="#FFFFFF">
    <path d="M38 32 L43 35 L33 35 Z"/>
    <rect x="34" y="35.6" width="1.3" height="4"/>
    <rect x="37.35" y="35.6" width="1.3" height="4"/>
    <rect x="40.7" y="35.6" width="1.3" height="4"/>
    <rect x="33" y="40" width="10" height="1.4"/>
  </g>
</svg>
