<svg xmlns="http://www.w3.org/2000/svg" width="48" height="48" viewBox="0 0 48 48">
  <defs><clipPath id="ca"><circle cx="24" cy="22" r="18"/></clipPath></defs>
  <g clip-path="url(#ca)">
    <rect x="6" y="4" width="36" height="36" fill="#FFFFFF"/>
    <rect x="6" y="4" width="9" height="36" fill="#D52B1E"/>
    <rect x="33" y="4" width="9" height="36" fill="#D52B1E"/>
    <path fill="#D52B1E" d="M24 13 L25 17 L28 16 L26.6 19.5 L30 20.5 L27 22.2 L28 25 L25 24 L24.4 28 L24 30 L23.6 28 L23 24 L20 25 L21 22.2 L18 20.5 L21.4 19.5 L20 16 L23 17 Z"/>
  </g>
  <circle cx="24" cy="22" r="18" fill="none" stroke="#FFFFFF" stroke-width="1.5"/>
  <circle cx="38" cy="37.5" r="9.5" fill="#0A1F5C" stroke="#FFFFFF" stroke-width="1"/>
  <g fill="#FFFFFF">
    <path d="M38 32 L43 35 L33 35 Z"/>
    <rect x="34" y="35.6" width="1.3" height="4"/>
    <rect x="37.35" y="35.6" width="1.3" height="4"/>
    <rect x="40.7" y="35.6" width="1.3" height="4"/>
    <rect x="33" y="40" width="10" height="1.4"/>
  </g>
</svg>
