<svg xmlns="http://www.w3.org/2000/svg" width="48" height="48" viewBox="0 0 48 48">
  <defs><clipPath id="eu"><circle cx="24" cy="22" r="18"/></clipPath></defs>
  <g clip-path="url(#eu)">
    <rect x="6" y="4" width="36" height="36" fill="#003399"/>
    <g fill="#FFCC00">
      <circle cx="24" cy="11" r="1.4"/>
      <circle cx="29.5" cy="12.47" r="1.4"/>
      <circle cx="33.53" cy="16.5" r="1.4"/>
      <circle cx="35" cy="22" r="1.4"/>
      <circle cx="33.53" cy="27.5" r="1.4"/>
      <circle cx="29.5" cy="31.53" r="1.4"/>
      <circle cx="24" cy="33" r="1.4"/>
      <circle cx="18.5" cy="31.53" r="1.4"/>
      <circle cx="14.47" cy="27.5" r="1.4"/>
      <circle cx="13" cy="22" r="1.4"/>
      <circle cx="14.47" cy="16.5" r="1.4"/>
      <circle cx="18.5" cy="12.47" r="1.4"/>
    </g>
  </g>
  <circle cx="24" cy="22" r="18" fill="none" stroke="#FFFFFF" stroke-width="1.5"/>
  <circle cx="38" cy="37.5" r="9.5" fill="#0A1F5C" stroke="#FFFFFF" stroke-width="1"/>
  <g fill="#FFFFFF">
    <path d="M38 32 L43 35 L33 35 Z"/>
    <rect x="34" y="35.6" width="1.3" height="4"/>
    <rect x="37.35" y="35.6" width="1.3" height="4"/>
    <rect x="40.7" y="35.6" width="1.3" height="4"/>
    <rect x="33" y="40" width="10" height="1.4"/>
  </g>
</svg>
