<svg xmlns="http://www.w3.org/2000/svg" width="48" height="48" viewBox="0 0 48 48">
  <defs><clipPath id="us"><circle cx="24" cy="22" r="18"/></clipPath></defs>
  <g clip-path="url(#us)">
    <rect x="6" y="4" width="36" height="36" fill="#FFFFFF"/>
    <g fill="#B22234">
      <rect x="6" y="4" width="36" height="2.77"/>
      <rect x="6" y="9.54" width="36" height="2.77"/>
      <rect x="6" y="15.08" width="36" height="2.77"/>
      <rect x="6" y="20.62" width="36" height="2.77"/>
      <rect x="6" y="26.16" width="36" height="2.77"/>
      <rect x="6" y="31.70" width="36" height="2.77"/>
      <rect x="6" y="37.24" width="36" height="2.76"/>
    </g>
    <rect x="6" y="4" width="16" height="15" fill="#3C3B6E"/>
    <g fill="#FFFFFF">
      <circle cx="9.5" cy="7.5" r="0.9"/><circle cx="13" cy="7.5" r="0.9"/><circle cx="16.5" cy="7.5" r="0.9"/><circle cx="20" cy="7.5" r="0.9"/>
      <circle cx="11.25" cy="10.5" r="0.9"/><circle cx="14.75" cy="10.5" r="0.9"/><circle cx="18.25" cy="10.5" r="0.9"/>
      <circle cx="9.5" cy="13.5" r="0.9"/><circle cx="13" cy="13.5" r="0.9"/><circle cx="16.5" cy="13.5" r="0.9"/><circle cx="20" cy="13.5" r="0.9"/>
      <circle cx="11.25" cy="16.5" r="0.9"/><circle cx="14.75" cy="16.5" r="0.9"/><circle cx="18.25" cy="16.5" r="0.9"/>
    </g>
  </g>
  <circle cx="24" cy="22" r="18" fill="none" stroke="#FFFFFF" stroke-width="1.5"/>
  <circle cx="38" cy="37.5" r="9.5" fill="#0A1F5C" stroke="#FFFFFF" stroke-width="1"/>
  <g fill="#FFFFFF">
    <path d="M38 32 L43 35 L33 35 Z"/>
    <rect x="34" y="35.6" width="1.3" height="4"/>
    <rect x="37.35" y="35.6" width="1.3" height="4"/>
    <rect x="40.7" y="35.6" width="1.3" height="4"/>
    <rect x="33" y="40" width="10" height="1.4"/>
  </g>
</svg>
